<svg width="24" height="16" viewBox="0 0 24 16" fill="none" xmlns="http://www.w3.org/2000/svg">
<g clip-path="url(#clip0_158_1311)">
<path fill-rule="evenodd" clip-rule="evenodd" d="M20.7491 4.77412L21.3929 6.77459H23.5331L21.8108 8.016L22.4545 10.0334L20.7491 8.792L19.0089 10.0334L19.6705 8.016L17.9477 6.77459H20.0705L20.7491 4.77412ZM17.6432 0.310588L18.1006 1.73176H19.6206L18.3971 2.61318L18.8545 4.04659L17.6432 3.16471L16.407 4.04659L16.8766 2.61318L15.6531 1.73129H17.1609L17.6432 0.310588ZM11.9529 0L12.2917 1.05271H13.4178L12.5115 1.70588L12.8503 2.76753L11.9533 2.11435L11.0371 2.76706L11.3853 1.70541L10.4785 1.05224H11.5957L11.9529 0Z" fill="url(#paint0_linear_158_1311)"/>
<path fill-rule="evenodd" clip-rule="evenodd" d="M3.97553 4.98438L4.13741 4.9872C4.49856 4.99956 4.85567 5.06733 5.19624 5.18814C5.557 5.31376 5.89164 5.50453 6.18353 5.75096C6.45731 5.98331 6.6818 6.26812 6.84376 6.58861C7.00471 6.9072 7.08518 7.24979 7.08518 7.61543C7.08518 8.15002 6.95482 8.59802 6.69459 8.95896C6.44505 9.31117 6.11043 9.59448 5.72188 9.78249V9.89496L5.86165 9.94861C6.31812 10.1368 6.68988 10.4117 6.97835 10.774C7.29553 11.1731 7.45412 11.6681 7.45412 12.2587C7.45412 12.6903 7.36659 13.0776 7.19153 13.4197C7.01765 13.7603 6.77316 14.06 6.47435 14.2987C6.15914 14.5492 5.80077 14.74 5.41694 14.8616C4.99702 14.9957 4.55845 15.0622 4.11765 15.0587H0V4.98438H3.97553ZM13.0927 4.98438L13.2424 4.9872C13.9831 5.01826 14.6245 5.2799 15.1656 5.77214C15.7431 6.2879 16.0315 6.94014 16.0315 7.72791C16.0315 8.68273 15.6089 9.36461 14.7624 9.77496L14.6546 9.82438V9.88085L14.7826 9.92555C15.2438 10.0997 15.6179 10.3773 15.904 10.7604C16.2165 11.1778 16.3727 11.6536 16.3727 12.1881C16.3727 13.014 16.0696 13.6987 15.464 14.2427C14.9115 14.7547 14.2376 15.0258 13.4419 15.0559L13.2913 15.0587H9.41553V4.98438H13.0927ZM13.2913 10.5138H10.7219V13.8206H13.3482C13.8216 13.8206 14.2235 13.6564 14.5553 13.3279C14.8772 12.9999 15.0381 12.6103 15.0381 12.1604C15.0381 11.7194 14.8725 11.3345 14.5412 11.0065C14.2099 10.678 13.7929 10.5138 13.2913 10.5138ZM3.98965 10.7251H1.91671V13.3138H4.04706C4.52988 13.3138 4.89882 13.1943 5.15435 12.9552C5.40988 12.7161 5.53788 12.4088 5.53788 12.0338C5.53788 11.6583 5.40753 11.3467 5.14729 11.0978C4.88706 10.8493 4.50118 10.7251 3.99012 10.7251H3.98965ZM13.1496 6.22249H10.7214V9.30391H13.0932C13.5567 9.30391 13.9449 9.14908 14.2569 8.83943C14.5694 8.52085 14.7256 8.15943 14.7256 7.75614C14.7256 7.36226 14.5741 7.00555 14.2711 6.68696C13.9685 6.37732 13.5944 6.22249 13.1496 6.22249ZM3.89035 6.68696H1.91671V9.09261H3.83341C4.27859 9.09261 4.62165 8.97308 4.86306 8.73402C5.10447 8.49496 5.22541 8.2112 5.22541 7.88273C5.22541 7.55426 5.10682 7.27285 4.87012 7.03849C4.63341 6.80414 4.30682 6.68696 3.89035 6.68696Z" fill="white"/>
</g>
<defs>
<linearGradient id="paint0_linear_158_1311" x1="209.613" y1="205.314" x2="1019.22" y2="1122.99" gradientUnits="userSpaceOnUse">
<stop stop-color="#FFA34A"/>
<stop offset="1" stop-color="#FF8851"/>
</linearGradient>
<clipPath id="clip0_158_1311">
<rect width="24" height="15.0588" fill="white"/>
</clipPath>
</defs>
</svg>
