<svg width="26" height="13" viewBox="0 0 26 13" fill="none" xmlns="http://www.w3.org/2000/svg">
<path d="M1.73839 1.15H0.359394V0.107H4.36339V1.15H2.97739V5H1.73839V1.15ZM7.35797 5.105C6.62064 5.105 6.06531 4.909 5.69197 4.517C5.31864 4.12033 5.13197 3.59767 5.13197 2.949V0.107H6.37097V2.963C6.37097 3.28967 6.45731 3.537 6.62997 3.705C6.80731 3.873 7.04997 3.957 7.35797 3.957C7.66597 3.957 7.90631 3.873 8.07897 3.705C8.25164 3.537 8.33797 3.28967 8.33797 2.963V0.107H9.57697V2.949C9.57697 3.60233 9.39031 4.125 9.01697 4.517C8.64831 4.909 8.09531 5.105 7.35797 5.105ZM10.5909 0.107H12.7889C13.3629 0.107 13.8109 0.251666 14.1329 0.541C14.4595 0.830333 14.6229 1.24567 14.6229 1.787C14.6229 2.151 14.5435 2.46133 14.3849 2.718C14.2262 2.97467 14.0022 3.166 13.7129 3.292L14.5809 5H13.3069L12.5299 3.467H11.8299V5H10.5909V0.107ZM12.5719 2.424C12.8192 2.424 13.0105 2.37733 13.1459 2.284C13.2812 2.186 13.3489 2.02033 13.3489 1.787C13.3489 1.54433 13.2812 1.37867 13.1459 1.29C13.0152 1.19667 12.8239 1.15 12.5719 1.15H11.8299V2.424H12.5719ZM15.5363 0.107H18.0143C18.4856 0.107 18.8566 0.223666 19.1273 0.457C19.4026 0.690333 19.5403 1.024 19.5403 1.458C19.5403 1.66333 19.4936 1.85467 19.4003 2.032C19.3069 2.20933 19.1739 2.34933 19.0013 2.452C19.2393 2.54533 19.4143 2.68067 19.5263 2.858C19.6383 3.03067 19.6943 3.257 19.6943 3.537C19.6943 3.83567 19.6243 4.097 19.4843 4.321C19.3443 4.54033 19.1553 4.70833 18.9173 4.825C18.6839 4.94167 18.4226 5 18.1333 5H15.5363V0.107ZM17.7413 2.046C18.1053 2.046 18.2873 1.87567 18.2873 1.535C18.2873 1.34367 18.2406 1.213 18.1473 1.143C18.0539 1.06833 17.9116 1.031 17.7203 1.031H16.7753V2.046H17.7413ZM17.8183 4.076C18.0283 4.076 18.1846 4.03633 18.2873 3.957C18.3899 3.87767 18.4413 3.73767 18.4413 3.537C18.4413 3.33633 18.3876 3.19167 18.2803 3.103C18.1729 3.00967 18.0096 2.963 17.7903 2.963H16.7753V4.076H17.8183ZM22.919 5.105C22.4243 5.105 21.9763 4.99767 21.575 4.783C21.1783 4.56833 20.8633 4.26967 20.63 3.887C20.4013 3.49967 20.287 3.05633 20.287 2.557C20.287 2.05767 20.4013 1.61433 20.63 1.227C20.8633 0.839666 21.1783 0.538666 21.575 0.324C21.9763 0.109333 22.4243 0.00199968 22.919 0.00199968C23.409 0.00199968 23.8523 0.109333 24.249 0.324C24.6503 0.538666 24.9653 0.839666 25.194 1.227C25.4226 1.61433 25.537 2.05767 25.537 2.557C25.537 3.05633 25.4226 3.49967 25.194 3.887C24.9653 4.26967 24.6503 4.56833 24.249 4.783C23.8523 4.99767 23.409 5.105 22.919 5.105ZM22.919 3.943C23.1663 3.943 23.3926 3.887 23.598 3.775C23.8033 3.663 23.9666 3.502 24.088 3.292C24.2093 3.082 24.27 2.837 24.27 2.557C24.27 2.277 24.2093 2.03433 24.088 1.829C23.9713 1.619 23.8103 1.458 23.605 1.346C23.3996 1.22933 23.171 1.171 22.919 1.171C22.6623 1.171 22.4313 1.22933 22.226 1.346C22.0206 1.458 21.8573 1.619 21.736 1.829C21.6193 2.03433 21.561 2.277 21.561 2.557C21.561 2.837 21.6193 3.082 21.736 3.292C21.8573 3.502 22.0206 3.663 22.226 3.775C22.436 3.887 22.667 3.943 22.919 3.943ZM0.960547 7.107H1.35255L3.31955 11.412L5.27955 7.107H5.67155V12H5.30755V7.863L3.41755 12H3.21455L1.32455 7.863V12H0.960547V7.107ZM8.38924 12.105C8.03924 12.105 7.72658 12.0327 7.45124 11.888C7.18058 11.7387 6.96824 11.531 6.81424 11.265C6.66024 10.9943 6.58324 10.6817 6.58324 10.327C6.58324 9.97233 6.66024 9.65967 6.81424 9.389C6.96824 9.11833 7.18058 8.90833 7.45124 8.759C7.72658 8.60967 8.03924 8.535 8.38924 8.535C8.73924 8.535 9.04958 8.60967 9.32024 8.759C9.59558 8.90833 9.81024 9.11833 9.96424 9.389C10.1229 9.65967 10.2022 9.97233 10.2022 10.327C10.2022 10.6817 10.1252 10.9943 9.97124 11.265C9.81724 11.531 9.60258 11.7387 9.32724 11.888C9.05191 12.0327 8.73924 12.105 8.38924 12.105ZM8.38924 11.811C8.67391 11.811 8.92591 11.7503 9.14524 11.629C9.36458 11.5077 9.53491 11.335 9.65624 11.111C9.77758 10.887 9.83824 10.6257 9.83824 10.327C9.83824 10.0283 9.77758 9.767 9.65624 9.543C9.53491 9.31433 9.36458 9.13933 9.14524 9.018C8.92591 8.89667 8.67391 8.836 8.38924 8.836C8.10458 8.836 7.85258 8.89667 7.63324 9.018C7.41391 9.13933 7.24358 9.31433 7.12224 9.543C7.00091 9.767 6.94024 10.0283 6.94024 10.327C6.94024 10.6257 7.00091 10.887 7.12224 11.111C7.24358 11.335 7.41391 11.5077 7.63324 11.629C7.85258 11.7503 8.10458 11.811 8.38924 11.811ZM12.9064 12.105C12.2157 12.105 11.7024 11.846 11.3664 11.328V12H11.0094V6.827H11.3734V9.312C11.5134 9.06 11.7234 8.86867 12.0034 8.738C12.2834 8.60267 12.5844 8.535 12.9064 8.535C13.233 8.535 13.5294 8.60967 13.7954 8.759C14.066 8.90833 14.2784 9.12067 14.4324 9.396C14.5864 9.66667 14.6634 9.977 14.6634 10.327C14.6634 10.6863 14.5864 11.0013 14.4324 11.272C14.2784 11.538 14.066 11.7433 13.7954 11.888C13.5294 12.0327 13.233 12.105 12.9064 12.105ZM12.8504 11.811C13.1164 11.811 13.359 11.7503 13.5784 11.629C13.8024 11.503 13.9774 11.328 14.1034 11.104C14.234 10.88 14.2994 10.621 14.2994 10.327C14.2994 10.033 14.234 9.774 14.1034 9.55C13.9774 9.32133 13.8024 9.14633 13.5784 9.025C13.359 8.899 13.1164 8.836 12.8504 8.836C12.5004 8.836 12.19 8.92933 11.9194 9.116C11.6487 9.298 11.4667 9.55 11.3734 9.872V10.789C11.476 11.1063 11.658 11.356 11.9194 11.538C12.1854 11.72 12.4957 11.811 12.8504 11.811ZM15.8348 7.842C15.7601 7.842 15.6971 7.81867 15.6458 7.772C15.5991 7.72067 15.5758 7.65767 15.5758 7.583C15.5758 7.513 15.5991 7.45233 15.6458 7.401C15.6971 7.34967 15.7601 7.324 15.8348 7.324C15.9048 7.324 15.9654 7.34967 16.0168 7.401C16.0681 7.45233 16.0938 7.513 16.0938 7.583C16.0938 7.65767 16.0681 7.72067 16.0168 7.772C15.9654 7.81867 15.9048 7.842 15.8348 7.842ZM15.6528 8.64H16.0168V12H15.6528V8.64ZM17.1412 6.827H17.5052V12H17.1412V6.827ZM20.3203 12.105C19.7183 12.105 19.2493 11.951 18.9133 11.643C18.5819 11.3303 18.4163 10.8917 18.4163 10.327C18.4163 9.77633 18.5656 9.34 18.8643 9.018C19.1676 8.696 19.5969 8.535 20.1523 8.535C20.5256 8.535 20.8429 8.60733 21.1043 8.752C21.3656 8.89667 21.5616 9.09733 21.6923 9.354C21.8276 9.61067 21.8953 9.90233 21.8953 10.229V10.46H18.7523C18.7616 10.9033 18.9086 11.2393 19.1933 11.468C19.4779 11.6967 19.8629 11.811 20.3483 11.811C20.5676 11.811 20.7823 11.7923 20.9923 11.755C21.2023 11.7177 21.3889 11.664 21.5523 11.594V11.909C21.4169 11.965 21.2303 12.0117 20.9923 12.049C20.7589 12.0863 20.5349 12.105 20.3203 12.105ZM21.5593 10.187C21.5546 9.77167 21.4356 9.44267 21.2023 9.2C20.9689 8.95733 20.6189 8.836 20.1523 8.836C19.6949 8.836 19.3473 8.962 19.1093 9.214C18.8759 9.466 18.7569 9.79033 18.7523 10.187H21.5593ZM23.9072 12.105C23.6972 12.105 23.4709 12.0723 23.2282 12.007C22.9902 11.9463 22.8059 11.8693 22.6752 11.776V11.461C22.8479 11.5683 23.0415 11.6547 23.2562 11.72C23.4755 11.7807 23.6902 11.811 23.9002 11.811C24.5162 11.811 24.8242 11.615 24.8242 11.223C24.8242 11.0877 24.7962 10.978 24.7402 10.894C24.6842 10.8053 24.5839 10.726 24.4392 10.656C24.2945 10.586 24.0822 10.5137 23.8022 10.439C23.5269 10.3643 23.3099 10.2897 23.1512 10.215C22.9972 10.1357 22.8782 10.0353 22.7942 9.914C22.7102 9.79267 22.6682 9.634 22.6682 9.438C22.6682 9.144 22.7825 8.92 23.0112 8.766C23.2445 8.612 23.5549 8.535 23.9422 8.535C24.3715 8.535 24.7192 8.605 24.9852 8.745V9.06C24.7099 8.91067 24.3669 8.836 23.9562 8.836C23.6575 8.836 23.4265 8.885 23.2632 8.983C23.1045 9.081 23.0252 9.23267 23.0252 9.438C23.0252 9.578 23.0532 9.68767 23.1092 9.767C23.1652 9.84633 23.2632 9.91633 23.4032 9.977C23.5479 10.0377 23.7672 10.1077 24.0612 10.187C24.4719 10.299 24.7612 10.432 24.9292 10.586C25.0972 10.74 25.1812 10.9523 25.1812 11.223C25.1812 11.4937 25.0739 11.7083 24.8592 11.867C24.6492 12.0257 24.3319 12.105 23.9072 12.105Z" fill="white"/>
</svg>
