<svg width="39" height="38" viewBox="0 0 39 38" fill="none" xmlns="http://www.w3.org/2000/svg">
<path d="M29.815 13.1761L29.8601 13.2212C29.9655 13.3348 30.1128 13.4003 30.2677 13.4025C31.1315 13.422 31.9905 13.5362 32.8294 13.7429C34.0055 13.9997 35.1468 14.3954 36.2294 14.9217C36.7165 15.203 37.3292 15.1391 37.7477 14.7634C38.1811 14.4366 38.3315 13.8539 38.1103 13.3583C35.9379 6.80307 30.4498 1.89327 23.6941 0.461232C18.9143 -0.610311 13.9054 0.201393 9.70858 2.72761C3.33881 6.44079 -0.4015 13.4206 0.0343371 20.7807C0.470174 28.1409 5.00808 34.6304 11.7716 37.5659C11.4771 37.3846 11.1145 37.1353 10.6609 36.7949C4.03841 31.6929 2.79155 22.1949 7.87283 15.5566C8.70356 14.4765 9.67109 13.509 10.7511 12.6783C12.0605 11.6796 13.5224 10.8988 15.0805 10.3659C16.653 9.84375 18.2969 9.56843 19.9537 9.54974C21.0121 9.55696 22.0671 9.67102 23.1026 9.89017C25.586 10.3884 27.8982 11.5204 29.815 13.1761Z" fill="#6863FF"/>
</svg>
