<svg width="151" height="40" viewBox="0 0 151 40" fill="none" xmlns="http://www.w3.org/2000/svg">
<g clip-path="url(#clip0_158_1247)">
<path d="M29.815 13.1761L29.8601 13.2212C29.9655 13.3348 30.1128 13.4003 30.2677 13.4025C31.1315 13.422 31.9905 13.5362 32.8294 13.7429C34.0055 13.9997 35.1468 14.3954 36.2294 14.9217C36.7165 15.203 37.3292 15.1391 37.7477 14.7634C38.1811 14.4366 38.3315 13.8539 38.1103 13.3583C35.9379 6.80307 30.4498 1.89327 23.6941 0.461232C18.9143 -0.610311 13.9054 0.201393 9.70858 2.72761C3.33881 6.44079 -0.4015 13.4206 0.0343371 20.7807C0.470174 28.1409 5.00808 34.6304 11.7716 37.5659C11.4771 37.3846 11.1145 37.1353 10.6609 36.7949C4.03841 31.6929 2.79155 22.1949 7.87283 15.5566C8.70356 14.4765 9.67109 13.509 10.7511 12.6783C12.0605 11.6796 13.5224 10.8988 15.0805 10.3659C16.653 9.84375 18.2969 9.56843 19.9537 9.54974C21.0121 9.55696 22.0671 9.67102 23.1026 9.89017C25.586 10.3884 27.8982 11.5204 29.815 13.1761Z" fill="#6863FF"/>
<path d="M12.1328 34.0302C13.1965 36.2521 15.1329 37.9344 17.4818 38.677C18.6699 39.0765 19.9267 39.2308 21.1762 39.1306C18.5769 37.1444 17.7676 33.5848 19.2528 30.67C20.7379 27.7553 24.0934 26.3177 27.2281 27.2532C27.688 27.4234 28.2045 27.2546 28.4749 26.8455C28.7912 26.477 28.8368 25.9477 28.5881 25.5306C27.269 23.0263 24.8687 21.2701 22.0826 20.7706C19.8824 20.3318 17.5976 20.7449 15.6903 21.9264C11.4756 24.3739 9.91273 29.6914 12.1328 34.0302Z" fill="#6863FF"/>
<path d="M24.6918 20.5851C26.3201 20.1064 28.0425 20.0441 29.7011 20.4038C30.3755 20.5581 31.0353 20.7705 31.673 21.0387C32.1263 21.2777 32.6832 21.1851 33.0347 20.8123C33.413 20.4484 33.522 19.8861 33.3071 19.4072C32.4374 17.2096 31.0354 15.2626 29.2271 13.7408C27.4197 12.2079 25.264 11.1416 22.9488 10.6353C19.3238 9.82261 15.5245 10.4829 12.3862 12.471C7.68071 15.3517 5.03774 20.6703 5.58346 26.1605C6.12919 31.6507 9.76741 36.3449 14.9479 38.2429C14.6961 38.0756 14.454 37.8941 14.2228 37.6991C12.1393 36.0561 10.794 33.6526 10.4831 31.0175C10.1722 28.3824 10.9211 25.7317 12.565 23.6489C13.143 22.9057 13.8319 22.2559 14.6075 21.7221C16.3041 20.4832 18.3545 19.8234 20.4552 19.8404C21.0636 19.8296 21.6714 19.8827 22.2688 19.9987C22.9546 20.1361 23.6289 20.3256 24.2858 20.5655C24.4126 20.6279 24.5596 20.635 24.6918 20.5851Z" fill="#6863FF"/>
<path d="M109.67 29.791C109.086 30.0197 108.571 30.3945 108.173 30.8795C107.762 31.4515 107.562 32.1483 107.607 32.8514C107.605 33.1249 107.628 33.3981 107.675 33.6676C107.734 33.9318 107.817 34.1899 107.924 34.4386C108.132 34.863 108.425 35.2397 108.785 35.545C109.172 35.8366 109.61 36.052 110.077 36.1799C110.587 36.3175 111.113 36.3862 111.641 36.3842H111.868C112.312 36.3763 112.753 36.3154 113.183 36.2029C113.588 36.1093 113.978 35.9564 114.339 35.7493C114.672 35.5308 114.983 35.2803 115.268 35.0012C115.472 34.7521 115.699 34.48 115.949 34.185V34.162C115.972 34.1399 115.972 34.1169 115.994 34.1169V34.9331C115.965 35.3273 116.107 35.715 116.384 35.997C116.661 36.279 117.046 36.4282 117.441 36.4063H118.189V35.1825H117.962C117.83 35.188 117.703 35.129 117.622 35.0242C117.537 34.9496 117.487 34.8427 117.486 34.7297V27.522C117.515 26.8411 117.375 26.1635 117.078 25.5501C116.836 25.0753 116.477 24.6697 116.036 24.3714C115.605 24.0829 115.118 23.8897 114.607 23.8046C114.085 23.7034 113.554 23.6501 113.021 23.6454C112.379 23.6255 111.737 23.7018 111.117 23.8718C110.567 24.0063 110.05 24.2532 109.599 24.5969C109.164 24.9343 108.814 25.3693 108.578 25.8667C108.305 26.4329 108.158 27.0513 108.147 27.6795H109.62C109.573 26.8626 109.918 26.0722 110.55 25.5518C111.214 25.0723 112.021 24.8323 112.839 24.871C113.249 24.8706 113.659 24.9085 114.063 24.9842C114.418 25.0428 114.758 25.174 115.06 25.3697C115.344 25.561 115.577 25.8175 115.741 26.1178C115.915 26.5099 116 26.9357 115.99 27.3646C115.999 27.6355 115.953 27.9054 115.854 28.1578C115.787 28.3508 115.66 28.5175 115.492 28.6335C115.319 28.7487 115.127 28.833 114.925 28.8829L114.109 28.9961C113.156 29.1093 112.386 29.2003 111.751 29.2905C111.034 29.3412 110.329 29.5097 109.666 29.7893M110.958 30.6505C111.55 30.4674 112.157 30.3384 112.772 30.265L114.698 29.9927L115.401 29.8114C115.638 29.7581 115.847 29.6212 115.99 29.4259V31.4429C115.974 31.9588 115.859 32.4668 115.65 32.9391C115.52 33.1937 115.369 33.4363 115.196 33.6642C115.061 33.8445 114.901 34.0047 114.721 34.1399C114.324 34.4679 113.871 34.7214 113.384 34.888C112.857 35.0646 112.306 35.1566 111.751 35.1603C111.41 35.1664 111.071 35.1048 110.754 34.9791C110.437 34.8661 110.139 34.7057 109.87 34.5033C109.625 34.2959 109.424 34.0415 109.28 33.7552C109.257 33.7322 109.257 33.6871 109.235 33.6642C109.114 33.3773 109.052 33.069 109.053 32.7578C109.029 32.2446 109.218 31.7441 109.575 31.3748C109.987 31.0486 110.456 30.8026 110.958 30.6497M90.2406 23.6003H88.8789V36.3399H90.3521V29.1544C90.3476 28.559 90.4162 27.9654 90.5564 27.3867C90.6851 26.8851 90.8999 26.4097 91.1913 25.9816C91.4829 25.5795 91.8734 25.2594 92.3249 25.0522C92.8366 24.8179 93.3945 24.7015 93.9572 24.7118C94.3624 24.6945 94.766 24.7721 95.1359 24.9382C95.4478 25.0728 95.7151 25.2929 95.907 25.5731C96.1111 25.8568 96.2503 26.1819 96.3147 26.5254C96.41 26.9032 96.4558 27.2917 96.4508 27.6812V36.3169H97.924V29.0412C97.9184 28.4933 97.9714 27.9463 98.0823 27.4097C98.1689 26.9134 98.3458 26.4372 98.604 26.0046C98.8477 25.6056 99.1916 25.2772 99.6015 25.0522C100.087 24.7871 100.636 24.6616 101.188 24.6897C102.007 24.5919 102.826 24.8762 103.409 25.4608C103.879 26.1277 104.103 26.9366 104.044 27.7501V36.3178H105.517V27.682C105.517 25.3246 104.588 23.9646 102.709 23.5569C102.313 23.4802 101.911 23.4423 101.508 23.4437C101.157 23.4441 100.808 23.4821 100.465 23.5569C100.042 23.6519 99.6369 23.8124 99.2636 24.0327C98.5485 24.4235 97.9887 25.0473 97.6772 25.8003C97.5058 25.053 97.0288 24.4118 96.3623 24.0327C96.0051 23.813 95.6149 23.6524 95.2066 23.5569C94.8711 23.4832 94.5288 23.4453 94.1853 23.4437C93.7896 23.4422 93.3947 23.4801 93.0066 23.5569C92.5651 23.6494 92.1432 23.8182 91.7598 24.0556C91.1005 24.5002 90.5691 25.1096 90.2185 25.8233H90.2415V23.602M145.571 23.602H144.209V36.3399H145.682V29.2454C145.673 28.639 145.788 28.0372 146.023 27.4778C146.224 26.9459 146.541 26.4657 146.952 26.0727C147.348 25.6711 147.828 25.3617 148.357 25.1663C148.883 24.9588 149.447 24.866 150.012 24.8939V23.4208C149.537 23.4066 149.062 23.4677 148.607 23.602C148.168 23.7168 147.754 23.9087 147.383 24.1688C146.571 24.7159 145.959 25.511 145.637 26.4352H145.592V23.602M136.933 23.625C136.079 23.6045 135.232 23.7911 134.465 24.1688C133.788 24.5045 133.204 25.0013 132.763 25.6157C132.313 26.2295 131.983 26.9223 131.789 27.6582C131.583 28.4195 131.477 29.2041 131.471 29.9927C131.475 30.8186 131.582 31.6408 131.789 32.4403C131.97 33.1766 132.294 33.8703 132.741 34.4829C133.179 35.0785 133.766 35.5482 134.443 35.8446C135.217 36.1963 136.061 36.3668 136.911 36.3433C138.187 36.4236 139.447 36.0278 140.447 35.2327C140.931 34.7916 141.324 34.2602 141.603 33.6684C141.86 33.1582 142.05 32.6174 142.17 32.0591H140.697C140.56 32.6331 140.322 33.1781 139.994 33.6684C139.836 33.906 139.645 34.1197 139.427 34.3033C138.724 34.9079 137.814 35.2166 136.888 35.1646C136.263 35.1758 135.646 35.0192 135.101 34.711C134.653 34.4399 134.254 34.0946 133.922 33.6897C133.899 33.6676 133.877 33.6216 133.854 33.5995C133.523 33.1327 133.278 32.6108 133.129 32.0582C132.979 31.527 132.903 30.9778 132.903 30.4259H142.173C142.203 29.5885 142.126 28.7507 141.947 27.9322C141.767 27.158 141.452 26.4215 141.018 25.7561C140.581 25.1313 140.017 24.606 139.363 24.2148C138.627 23.7921 137.786 23.5875 136.938 23.625M135.328 25.2114C136.339 24.7282 137.514 24.7282 138.524 25.2114C138.977 25.4456 139.379 25.7696 139.703 26.1637C140.038 26.569 140.299 27.0299 140.474 27.5254C140.659 28.0422 140.759 28.5859 140.768 29.1348H132.971C133.035 28.5849 133.164 28.0447 133.356 27.5254C133.54 27.0289 133.808 26.5681 134.15 26.1637C134.456 25.7521 134.861 25.4245 135.328 25.2114ZM121.887 19.6582H120.413V36.3391H121.887V31.7603L124.27 29.7654L129.03 36.3382H130.888L125.403 28.745L131.342 23.5995H129.363L121.906 30.1271V19.6591M81.4917 23.6259C80.6372 23.6053 79.7904 23.7919 79.0236 24.1697C78.3511 24.5125 77.7682 25.008 77.3215 25.6165C76.8693 26.226 76.5453 26.9209 76.3691 27.6591C76.1576 28.4191 76.0508 29.2045 76.0517 29.9935C76.0494 30.8198 76.1562 31.6428 76.3691 32.4412C76.5509 33.1774 76.8744 33.8712 77.3215 34.4837C77.7695 35.0694 78.3538 35.5369 79.0236 35.8454C79.7977 36.1971 80.6418 36.3677 81.4917 36.3442C82.7668 36.4206 84.0255 36.0253 85.0279 35.2335C85.5118 34.7874 85.9111 34.2574 86.2066 33.6693C86.4432 33.1508 86.6329 32.6122 86.7734 32.0599H85.3002C85.1562 32.6352 84.9106 33.1802 84.5751 33.6693C84.4187 33.901 84.2363 34.1141 84.0313 34.3042C83.3392 34.912 82.4349 35.2216 81.5155 35.1654C80.8903 35.1738 80.2739 35.0174 79.7283 34.7118C79.2715 34.4529 78.8709 34.1058 78.5496 33.6905C78.5266 33.6684 78.5045 33.6225 78.4815 33.6003C78.1505 33.1335 77.905 32.6117 77.7564 32.0591C77.6216 31.5254 77.553 30.9771 77.5521 30.4267H86.8228C86.854 29.5893 86.7779 28.7512 86.5964 27.9331C86.4255 27.1598 86.1186 26.4229 85.69 25.7569C85.2571 25.1207 84.683 24.5932 84.0125 24.2157C83.2415 23.7983 82.373 23.5947 81.4968 23.6259M79.8874 25.2122C80.8979 24.729 82.0727 24.729 83.0832 25.2122C83.5366 25.4465 83.9376 25.7705 84.2619 26.1646C84.5979 26.5652 84.852 27.0279 85.01 27.5263C85.1945 28.0433 85.2939 28.5868 85.3045 29.1356H77.507C77.57 28.5856 77.6995 28.0452 77.8925 27.5263C78.0654 27.0249 78.3349 26.5623 78.6857 26.1646C79.0185 25.7699 79.4272 25.4461 79.8874 25.2122ZM66.1291 23.6029H64.4951L69.1419 36.3416H70.7062L75.2398 23.6029H73.6985L69.9581 34.1433L66.1291 23.6029ZM54.1147 25.8471C53.8446 26.4156 53.6904 27.0321 53.6611 27.6608H55.1342C55.0871 26.8439 55.4323 26.0536 56.0636 25.5331C56.7277 25.0537 57.5348 24.8137 58.353 24.8522C58.7635 24.852 59.1732 24.8899 59.5768 24.9654C59.9386 25.028 60.2852 25.1588 60.5981 25.351C60.8816 25.5423 61.1151 25.7988 61.2789 26.0991C61.4531 26.4911 61.5382 26.9169 61.5283 27.3459C61.5373 27.6168 61.4909 27.8867 61.3921 28.1391C61.3249 28.3321 61.1979 28.4987 61.0296 28.6148C60.8564 28.73 60.6646 28.8143 60.4628 28.8642L59.6466 28.9774C58.6942 29.0905 57.924 29.1816 57.2891 29.2718C56.5743 29.3536 55.8733 29.5287 55.204 29.7927C54.6237 30.0158 54.1146 30.392 53.7308 30.8812C53.3197 31.4533 53.1194 32.15 53.164 32.8531C53.1622 33.1266 53.185 33.3998 53.2321 33.6693C53.2912 33.9334 53.3747 34.1916 53.4815 34.4403C53.689 34.8647 53.9823 35.2414 54.3428 35.5467C54.7293 35.8383 55.1677 36.0537 55.6347 36.1816C56.1519 36.3206 56.6855 36.3893 57.2211 36.3859H57.4253C57.8693 36.378 58.3107 36.3171 58.7402 36.2046C59.1399 36.115 59.5226 35.9618 59.8738 35.751C60.2044 35.5382 60.5086 35.2871 60.7802 35.0029C60.9845 34.7538 61.2114 34.4817 61.4611 34.1867V34.1637C61.484 34.1416 61.484 34.1186 61.5062 34.1186V34.9348C61.4772 35.329 61.6193 35.7167 61.8963 35.9987C62.1733 36.2807 62.5583 36.4299 62.953 36.408H63.6781V35.1842H63.4517C63.3192 35.1899 63.1922 35.1308 63.1113 35.0259C63.0263 34.9513 62.9769 34.8444 62.9751 34.7314V27.5237C63.0046 26.8428 62.8646 26.1652 62.5674 25.5518C62.3255 25.0834 61.9754 24.6793 61.5462 24.3731C61.1159 24.0846 60.629 23.8914 60.1181 23.8063C59.5952 23.7051 59.0642 23.6518 58.5317 23.6471C57.8818 23.6288 57.2328 23.7051 56.6049 23.8735C56.0542 24.008 55.5373 24.2549 55.0866 24.5986C54.6688 24.9324 54.3351 25.3594 54.1121 25.8454M55.1547 31.3774C55.5345 31.0302 55.9935 30.7813 56.4917 30.6522C57.0833 30.4691 57.6903 30.3401 58.3053 30.2667L60.2321 29.9944L60.9351 29.8131C61.1718 29.76 61.3812 29.623 61.5249 29.4276V31.4446C61.5085 31.9605 61.393 32.4685 61.1845 32.9408C61.0549 33.1954 60.9031 33.438 60.7308 33.6659C60.5973 33.8404 60.4452 33.9999 60.2772 34.1416C59.8804 34.4697 59.4274 34.7231 58.9402 34.8897C58.4214 35.0644 57.8783 35.1563 57.3308 35.162C56.9896 35.168 56.6506 35.1064 56.3334 34.9808C56.0212 34.8725 55.7299 34.7116 55.4721 34.505C55.2278 34.2975 55.0275 34.0431 54.8832 33.7569C54.8602 33.7339 54.8602 33.6888 54.8381 33.6659C54.7171 33.379 54.6555 33.0707 54.6568 32.7595C54.5926 32.2453 54.7779 31.7314 55.1555 31.3765M52.7981 23.602H51.2568L47.5172 34.1425L43.6874 23.602H42.0551L38.3147 34.1425L34.4849 23.602H32.8525L37.4993 36.3408H39.0653L42.8279 25.7101L46.7036 36.3408H48.2679L52.7981 23.602Z" fill="#333333"/>
</g>
<defs>
<clipPath id="clip0_158_1247">
<rect width="150.638" height="40" fill="white"/>
</clipPath>
</defs>
</svg>
