<svg width="163" height="40" viewBox="0 0 163 40" fill="none" xmlns="http://www.w3.org/2000/svg">
<g clip-path="url(#clip0_158_1175)">
<path d="M29.815 13.1761L29.8601 13.2212C29.9655 13.3348 30.1128 13.4003 30.2677 13.4025C31.1315 13.422 31.9905 13.5362 32.8294 13.7429C34.0055 13.9997 35.1468 14.3954 36.2294 14.9217C36.7165 15.203 37.3292 15.1391 37.7477 14.7634C38.1811 14.4366 38.3315 13.8539 38.1103 13.3583C35.9379 6.80307 30.4498 1.89327 23.6941 0.461232C18.9143 -0.610311 13.9054 0.201393 9.70858 2.72761C3.33881 6.44079 -0.4015 13.4206 0.0343371 20.7807C0.470174 28.1409 5.00808 34.6304 11.7716 37.5659C11.4771 37.3846 11.1145 37.1353 10.6609 36.7949C4.03841 31.6929 2.79155 22.1949 7.87283 15.5566C8.70356 14.4765 9.67109 13.509 10.7511 12.6783C12.0605 11.6796 13.5224 10.8988 15.0805 10.3659C16.653 9.84375 18.2969 9.56843 19.9537 9.54974C21.0121 9.55696 22.0671 9.67102 23.1026 9.89017C25.586 10.3884 27.8982 11.5204 29.815 13.1761Z" fill="#6863FF"/>
<path d="M12.1328 34.0302C13.1965 36.2521 15.1329 37.9344 17.4818 38.677C18.6699 39.0765 19.9267 39.2308 21.1762 39.1306C18.5769 37.1444 17.7676 33.5848 19.2528 30.67C20.7379 27.7553 24.0934 26.3177 27.2281 27.2532C27.688 27.4234 28.2045 27.2546 28.4749 26.8455C28.7912 26.477 28.8368 25.9477 28.5881 25.5306C27.269 23.0263 24.8687 21.2701 22.0826 20.7706C19.8824 20.3318 17.5976 20.7449 15.6903 21.9264C11.4756 24.3739 9.91273 29.6914 12.1328 34.0302Z" fill="#6863FF"/>
<path d="M24.6918 20.5851C26.3201 20.1064 28.0425 20.0441 29.7011 20.4038C30.3755 20.5581 31.0353 20.7705 31.673 21.0387C32.1263 21.2777 32.6832 21.1851 33.0347 20.8123C33.413 20.4484 33.522 19.8861 33.3071 19.4072C32.4374 17.2096 31.0354 15.2626 29.2271 13.7408C27.4197 12.2079 25.264 11.1416 22.9488 10.6353C19.3238 9.82261 15.5245 10.4829 12.3862 12.471C7.68071 15.3517 5.03774 20.6703 5.58346 26.1605C6.12919 31.6507 9.76741 36.3449 14.9479 38.2429C14.6961 38.0756 14.454 37.8941 14.2228 37.6991C12.1393 36.0561 10.794 33.6526 10.4831 31.0175C10.1722 28.3824 10.9211 25.7317 12.565 23.6489C13.143 22.9057 13.8319 22.2559 14.6075 21.7221C16.3041 20.4832 18.3545 19.8234 20.4552 19.8404C21.0636 19.8296 21.6714 19.8827 22.2688 19.9987C22.9546 20.1361 23.6289 20.3256 24.2858 20.5655C24.4126 20.6279 24.5596 20.635 24.6918 20.5851Z" fill="#6863FF"/>
<path d="M121.818 32.1328C121.234 32.3615 120.719 32.7363 120.322 33.2213C119.911 33.7933 119.71 34.4901 119.755 35.1932C119.753 35.4667 119.776 35.7399 119.823 36.0094C119.882 36.2735 119.966 36.5317 120.072 36.7804C120.28 37.2048 120.573 37.5815 120.934 37.8868C121.32 38.1784 121.759 38.3938 122.226 38.5217C122.736 38.6593 123.262 38.728 123.79 38.726H124.016C124.46 38.7181 124.902 38.6572 125.331 38.5447C125.737 38.4511 126.126 38.2982 126.487 38.0911C126.82 37.8726 127.132 37.6221 127.416 37.343C127.621 37.0939 127.848 36.8218 128.097 36.5268V36.5038C128.12 36.4817 128.12 36.4587 128.142 36.4587V37.2749C128.113 37.6691 128.255 38.0568 128.532 38.3388C128.809 38.6208 129.194 38.77 129.589 38.7481H130.337V37.5243H130.111C129.978 37.5298 129.851 37.4708 129.77 37.366C129.685 37.2914 129.636 37.1845 129.634 37.0715V29.8638C129.664 29.1829 129.524 28.5053 129.227 27.8919C128.984 27.4171 128.626 27.0115 128.184 26.7132C127.754 26.4247 127.267 26.2315 126.756 26.1464C126.233 26.0452 125.702 25.9919 125.169 25.9872C124.527 25.9673 123.885 26.0436 123.266 26.2136C122.715 26.3481 122.198 26.595 121.747 26.9387C121.312 27.2761 120.962 27.7111 120.726 28.2085C120.454 28.7747 120.307 29.3931 120.295 30.0213H121.769C121.721 29.2044 122.067 28.414 122.698 27.8936C123.362 27.4141 124.169 27.1741 124.987 27.2128C125.398 27.2124 125.808 27.2503 126.211 27.326C126.567 27.3846 126.906 27.5158 127.209 27.7115C127.492 27.9027 127.726 28.1593 127.889 28.4596C128.064 28.8517 128.149 29.2775 128.139 29.7064C128.148 29.9773 128.101 30.2472 128.003 30.4996C127.935 30.6926 127.808 30.8593 127.64 30.9753C127.467 31.0905 127.275 31.1748 127.073 31.2247L126.257 31.3379C125.305 31.4511 124.535 31.5421 123.9 31.6323C123.182 31.683 122.478 31.8515 121.815 32.1311M123.107 32.9923C123.698 32.8092 124.305 32.6802 124.92 32.6068L126.847 32.3345L127.55 32.1532C127.786 32.0999 127.995 31.963 128.139 31.7677V33.7847C128.123 34.3006 128.007 34.8086 127.798 35.2809C127.669 35.5355 127.517 35.7781 127.345 36.006C127.21 36.1863 127.049 36.3465 126.869 36.4817C126.472 36.8097 126.019 37.0632 125.532 37.2298C125.006 37.4064 124.455 37.4984 123.9 37.5021C123.559 37.5082 123.22 37.4466 122.902 37.3209C122.585 37.2079 122.287 37.0475 122.018 36.8451C121.773 36.6377 121.573 36.3833 121.428 36.097C121.405 36.074 121.405 36.0289 121.383 36.006C121.262 35.7191 121.201 35.4108 121.202 35.0996C121.178 34.5864 121.366 34.0859 121.724 33.7166C122.135 33.3904 122.604 33.1444 123.107 32.9915M102.389 25.9421H101.027V38.6817H102.501V31.4962C102.496 30.9008 102.565 30.3071 102.705 29.7285C102.834 29.2269 103.048 28.7515 103.34 28.3234C103.631 27.9213 104.022 27.6012 104.473 27.394C104.985 27.1597 105.543 27.0433 106.106 27.0536C106.511 27.0363 106.914 27.1139 107.284 27.28C107.596 27.4146 107.864 27.6347 108.055 27.9149C108.26 28.1986 108.399 28.5237 108.463 28.8672C108.558 29.2449 108.604 29.6335 108.599 30.023V38.6587H110.072V31.383C110.067 30.8351 110.12 30.2881 110.231 29.7515C110.317 29.2552 110.494 28.779 110.752 28.3464C110.996 27.9474 111.34 27.619 111.75 27.394C112.235 27.1289 112.784 27.0034 113.336 27.0315C114.156 26.9337 114.975 27.218 115.558 27.8026C116.027 28.4695 116.251 29.2784 116.192 30.0919V38.6596H117.666V30.0238C117.666 27.6664 116.736 26.3064 114.857 25.8987C114.462 25.822 114.059 25.7841 113.656 25.7855C113.306 25.7859 112.956 25.8239 112.614 25.8987C112.191 25.9937 111.785 26.1542 111.412 26.3745C110.697 26.7653 110.137 27.3891 109.826 28.1421C109.654 27.3948 109.177 26.7536 108.511 26.3745C108.154 26.1548 107.763 25.9942 107.355 25.8987C107.02 25.825 106.677 25.7871 106.334 25.7855C105.938 25.784 105.543 25.8219 105.155 25.8987C104.714 25.9912 104.292 26.16 103.908 26.3974C103.249 26.842 102.718 27.4514 102.367 28.1651H102.39V25.9438M157.719 25.9438H156.358V38.6817H157.831V31.5872C157.821 30.9808 157.937 30.379 158.171 29.8196C158.372 29.2877 158.69 28.8075 159.101 28.4145C159.497 28.0129 159.976 27.7035 160.506 27.5081C161.031 27.3006 161.596 27.2078 162.16 27.2357V25.7626C161.685 25.7484 161.211 25.8095 160.755 25.9438C160.317 26.0586 159.902 26.2505 159.531 26.5106C158.72 27.0577 158.107 27.8528 157.786 28.777H157.741V25.9438M149.082 25.9668C148.227 25.9463 147.381 26.1329 146.614 26.5106C145.936 26.8463 145.352 27.3431 144.912 27.9574C144.462 28.5713 144.131 29.2641 143.937 30C143.732 30.7613 143.625 31.5459 143.62 32.3345C143.623 33.1604 143.73 33.9826 143.937 34.7821C144.119 35.5184 144.442 36.2121 144.889 36.8247C145.327 37.4203 145.914 37.89 146.592 38.1864C147.366 38.5381 148.21 38.7086 149.06 38.6851C150.335 38.7654 151.595 38.3696 152.596 37.5745C153.079 37.1334 153.472 36.602 153.752 36.0102C154.008 35.5 154.198 34.9592 154.318 34.4009H152.845C152.709 34.9749 152.471 35.5199 152.142 36.0102C151.985 36.2478 151.794 36.4615 151.575 36.6451C150.872 37.2497 149.962 37.5584 149.037 37.5064C148.411 37.5176 147.794 37.361 147.249 37.0528C146.801 36.7817 146.403 36.4364 146.071 36.0315C146.048 36.0094 146.026 35.9634 146.003 35.9413C145.672 35.4745 145.426 34.9526 145.278 34.4C145.128 33.8688 145.051 33.3196 145.051 32.7677H154.322C154.351 31.9303 154.275 31.0925 154.095 30.274C153.915 29.4998 153.601 28.7633 153.166 28.0979C152.73 27.4731 152.166 26.9478 151.512 26.5566C150.775 26.1339 149.934 25.9293 149.086 25.9668M147.477 27.5532C148.487 27.07 149.662 27.07 150.672 27.5532C151.126 27.7874 151.527 28.1114 151.851 28.5055C152.186 28.9108 152.447 29.3717 152.622 29.8672C152.808 30.384 152.907 30.9277 152.917 31.4766H145.119C145.183 30.9267 145.313 30.3865 145.505 29.8672C145.688 29.3707 145.956 28.9099 146.298 28.5055C146.604 28.0939 147.01 27.7663 147.477 27.5532ZM134.035 22H132.562V38.6809H134.035V34.1021L136.418 32.1072L141.178 38.68H143.037L137.552 31.0868L143.49 25.9413H141.512L134.055 32.4689V22.0009M93.6401 25.9677C92.7856 25.9471 91.9388 26.1337 91.172 26.5115C90.4995 26.8543 89.9166 27.3498 89.4699 27.9583C89.0177 28.5678 88.6938 29.2627 88.5176 30.0009C88.306 30.7609 88.1992 31.5463 88.2001 32.3353C88.1979 33.1616 88.3046 33.9846 88.5176 34.783C88.6994 35.5192 89.0228 36.213 89.4699 36.8255C89.918 37.4112 90.5023 37.8787 91.172 38.1872C91.9461 38.5389 92.7902 38.7095 93.6401 38.686C94.9152 38.7624 96.1739 38.3671 97.1763 37.5753C97.6602 37.1292 98.0595 36.5992 98.355 36.0111C98.5916 35.4926 98.7813 34.954 98.9218 34.4017H97.4486C97.3046 34.977 97.0591 35.522 96.7235 36.0111C96.5672 36.2428 96.3847 36.4559 96.1797 36.646C95.4877 37.2538 94.5833 37.5634 93.664 37.5072C93.0387 37.5156 92.4223 37.3592 91.8767 37.0536C91.42 36.7947 91.0193 36.4476 90.698 36.0323C90.675 36.0102 90.6529 35.9643 90.6299 35.9421C90.299 35.4753 90.0534 34.9535 89.9048 34.4009C89.77 33.8672 89.7014 33.3189 89.7006 32.7685H98.9712C99.0024 31.9311 98.9263 31.093 98.7448 30.2749C98.5739 29.5016 98.267 28.7647 97.8384 28.0987C97.4056 27.4625 96.8315 26.935 96.161 26.5574C95.39 26.1401 94.5214 25.9365 93.6452 25.9677M92.0359 27.554C93.0463 27.0708 94.2212 27.0708 95.2316 27.554C95.685 27.7883 96.0861 28.1123 96.4103 28.5064C96.7463 28.907 97.0005 29.3697 97.1584 29.8681C97.3429 30.3851 97.4423 30.9286 97.4529 31.4774H89.6554C89.7184 30.9274 89.8479 30.387 90.041 29.8681C90.2138 29.3667 90.4833 28.9041 90.8342 28.5064C91.167 28.1117 91.5756 27.7879 92.0359 27.554ZM78.2776 25.9447H76.6435L81.2903 38.6834H82.8546L87.3882 25.9447H85.8469L82.1065 36.4851L78.2776 25.9447ZM66.2631 28.1889C65.993 28.7574 65.8388 29.3739 65.8095 30.0026H67.2827C67.2355 29.1857 67.5808 28.3954 68.212 27.8749C68.8762 27.3955 69.6832 27.1555 70.5014 27.194C70.912 27.1938 71.3217 27.2317 71.7252 27.3072C72.087 27.3698 72.4336 27.5006 72.7465 27.6928C73.0301 27.884 73.2635 28.1406 73.4274 28.4409C73.6015 28.8329 73.6867 29.2587 73.6767 29.6877C73.6857 29.9586 73.6394 30.2285 73.5406 30.4809C73.4733 30.6739 73.3463 30.8405 73.178 30.9566C73.0048 31.0718 72.8131 31.1561 72.6112 31.206L71.795 31.3191C70.8427 31.4323 70.0725 31.5234 69.4376 31.6136C68.7228 31.6954 68.0218 31.8705 67.3525 32.1345C66.7721 32.3576 66.2631 32.7338 65.8793 33.223C65.4682 33.795 65.2679 34.4918 65.3125 35.1949C65.3107 35.4684 65.3335 35.7416 65.3806 36.0111C65.4396 36.2752 65.5231 36.5334 65.6299 36.7821C65.8374 37.2065 66.1307 37.5832 66.4912 37.8885C66.8777 38.1801 67.3161 38.3955 67.7831 38.5234C68.3003 38.6624 68.8339 38.7311 69.3695 38.7277H69.5737C70.0177 38.7198 70.4591 38.6589 70.8886 38.5464C71.2883 38.4568 71.6711 38.3036 72.0223 38.0928C72.3528 37.88 72.6571 37.6289 72.9286 37.3447C73.1329 37.0956 73.3598 36.8235 73.6095 36.5285V36.5055C73.6325 36.4834 73.6325 36.4604 73.6546 36.4604V37.2766C73.6256 37.6708 73.7677 38.0585 74.0447 38.3405C74.3217 38.6225 74.7067 38.7717 75.1014 38.7498H75.8265V37.526H75.6001C75.4677 37.5317 75.3407 37.4726 75.2597 37.3677C75.1748 37.2931 75.1253 37.1862 75.1235 37.0732V29.8655C75.1531 29.1846 75.013 28.507 74.7159 27.8936C74.4739 27.4252 74.1238 27.0211 73.6946 26.7149C73.2644 26.4264 72.7775 26.2332 72.2665 26.1481C71.7437 26.0469 71.2127 25.9936 70.6801 25.9889C70.0303 25.9706 69.3812 26.0469 68.7533 26.2153C68.2027 26.3498 67.6858 26.5967 67.235 26.9404C66.8173 27.2742 66.4835 27.7012 66.2606 28.1872M67.3031 33.7191C67.683 33.372 68.142 33.1231 68.6401 32.994C69.2317 32.8109 69.8388 32.6819 70.4537 32.6085L72.3806 32.3362L73.0835 32.1549C73.3202 32.1018 73.5297 31.9648 73.6733 31.7694V33.7864C73.657 34.3023 73.5414 34.8103 73.3329 35.2826C73.2034 35.5372 73.0516 35.7798 72.8793 36.0077C72.7457 36.1822 72.5936 36.3417 72.4257 36.4834C72.0288 36.8115 71.5758 37.0649 71.0886 37.2315C70.5698 37.4062 70.0267 37.4981 69.4793 37.5038C69.1381 37.5098 68.7991 37.4482 68.4818 37.3226C68.1697 37.2143 67.8784 37.0534 67.6206 36.8468C67.3762 36.6393 67.176 36.3849 67.0316 36.0987C67.0086 36.0757 67.0086 36.0306 66.9865 36.0077C66.8656 35.7208 66.8039 35.4125 66.8052 35.1013C66.741 34.5871 66.9264 34.0732 67.304 33.7183M64.9465 25.9438H63.4052L59.6657 36.4843L55.8359 25.9438H54.2035L50.4631 36.4843L46.6333 25.9438H45.001L49.6478 38.6826H51.2137L54.9763 28.0519L58.852 38.6826H60.4163L64.9465 25.9438Z" fill="#6863FF"/>
<path d="M51.4094 9.74645C51.3696 9.34541 51.1989 9.03385 50.8973 8.81179C50.5957 8.58972 50.1863 8.47869 49.6693 8.47869C49.318 8.47869 49.0213 8.52841 48.7794 8.62784C48.5374 8.72396 48.3518 8.85819 48.2226 9.03054C48.0966 9.20289 48.0336 9.39844 48.0336 9.61719C48.027 9.79948 48.0651 9.95857 48.148 10.0945C48.2342 10.2304 48.3518 10.348 48.501 10.4474C48.6501 10.5436 48.8225 10.6281 49.018 10.701C49.2136 10.7706 49.4224 10.8303 49.6444 10.88L50.5592 11.0987C51.0033 11.1982 51.411 11.3307 51.7822 11.4964C52.1534 11.6622 52.4749 11.866 52.7467 12.108C53.0185 12.3499 53.229 12.6349 53.3781 12.9631C53.5306 13.2912 53.6085 13.6674 53.6118 14.0916C53.6085 14.7147 53.4494 15.255 53.1345 15.7124C52.8229 16.1664 52.3722 16.5194 51.7822 16.7713C51.1956 17.0199 50.488 17.1442 49.6594 17.1442C48.8374 17.1442 48.1215 17.0182 47.5116 16.7663C46.9051 16.5144 46.4311 16.1416 46.0898 15.6477C45.7517 15.1506 45.5744 14.5357 45.5578 13.8033H47.6409C47.6641 14.1446 47.7619 14.4297 47.9342 14.6584C48.1099 14.8838 48.3435 15.0545 48.6352 15.1705C48.9302 15.2831 49.2633 15.3395 49.6345 15.3395C49.9991 15.3395 50.3156 15.2865 50.5841 15.1804C50.8559 15.0743 51.0663 14.9268 51.2155 14.7379C51.3646 14.549 51.4392 14.3319 51.4392 14.0866C51.4392 13.858 51.3712 13.6657 51.2354 13.5099C51.1028 13.3542 50.9072 13.2216 50.6487 13.1122C50.3935 13.0028 50.0803 12.9034 49.7091 12.8139L48.6004 12.5355C47.742 12.3267 47.0642 12.0002 46.567 11.5561C46.0699 11.112 45.8229 10.5137 45.8263 9.76136C45.8229 9.14489 45.987 8.6063 46.3184 8.1456C46.6532 7.6849 47.1122 7.32528 47.6956 7.06676C48.2789 6.80824 48.9418 6.67898 49.6842 6.67898C50.4399 6.67898 51.0995 6.80824 51.6629 7.06676C52.2297 7.32528 52.6705 7.6849 52.9854 8.1456C53.3002 8.6063 53.4626 9.13991 53.4726 9.74645H51.4094ZM56.6379 12.5852V17H54.52V6.81818H56.5782V10.7109H56.6677C56.8401 10.2602 57.1185 9.9072 57.5029 9.65199C57.8874 9.39347 58.3696 9.2642 58.9497 9.2642C59.48 9.2642 59.9423 9.38021 60.3367 9.61222C60.7345 9.84091 61.0427 10.1707 61.2615 10.6016C61.4835 11.0291 61.5929 11.5412 61.5896 12.1378V17H59.4717V12.5156C59.475 12.045 59.3557 11.6787 59.1137 11.4169C58.8751 11.1551 58.5403 11.0241 58.1095 11.0241C57.8211 11.0241 57.5659 11.0855 57.3438 11.2081C57.1251 11.3307 56.9527 11.5097 56.8268 11.745C56.7042 11.977 56.6412 12.2571 56.6379 12.5852ZM66.2066 17.1491C65.4343 17.1491 64.7665 16.9851 64.203 16.657C63.6429 16.3255 63.2104 15.8648 62.9055 15.2749C62.6005 14.6816 62.4481 13.9938 62.4481 13.2116C62.4481 12.4228 62.6005 11.7334 62.9055 11.1435C63.2104 10.5502 63.6429 10.0895 64.203 9.76136C64.7665 9.42992 65.4343 9.2642 66.2066 9.2642C66.9788 9.2642 67.645 9.42992 68.2052 9.76136C68.7686 10.0895 69.2028 10.5502 69.5077 11.1435C69.8126 11.7334 69.9651 12.4228 69.9651 13.2116C69.9651 13.9938 69.8126 14.6816 69.5077 15.2749C69.2028 15.8648 68.7686 16.3255 68.2052 16.657C67.645 16.9851 66.9788 17.1491 66.2066 17.1491ZM66.2165 15.5085C66.5679 15.5085 66.8612 15.4091 67.0965 15.2102C67.3318 15.008 67.5091 14.733 67.6285 14.3849C67.7511 14.0369 67.8124 13.6409 67.8124 13.1967C67.8124 12.7526 67.7511 12.3565 67.6285 12.0085C67.5091 11.6605 67.3318 11.3854 67.0965 11.1832C66.8612 10.9811 66.5679 10.88 66.2165 10.88C65.8619 10.88 65.5636 10.9811 65.3216 11.1832C65.083 11.3854 64.9024 11.6605 64.7797 12.0085C64.6604 12.3565 64.6008 12.7526 64.6008 13.1967C64.6008 13.6409 64.6604 14.0369 64.7797 14.3849C64.9024 14.733 65.083 15.008 65.3216 15.2102C65.5636 15.4091 65.8619 15.5085 66.2165 15.5085ZM72.1572 17L70.0791 9.36364H72.2219L73.4051 14.4943H73.4747L74.7077 9.36364H76.8106L78.0635 14.4645H78.1281L79.2915 9.36364H81.4292L79.3561 17H77.1139L75.8014 12.1974H75.7069L74.3944 17H72.1572ZM85.3179 17.1491C84.5357 17.1491 83.8629 16.9834 83.2994 16.652C82.7393 16.3172 82.3084 15.8532 82.0068 15.2599C81.7085 14.6667 81.5594 13.9839 81.5594 13.2116C81.5594 12.4295 81.7102 11.7434 82.0118 11.1534C82.3167 10.5601 82.7493 10.0978 83.3094 9.76633C83.8695 9.43158 84.5357 9.2642 85.308 9.2642C85.9742 9.2642 86.5575 9.38518 87.058 9.62713C87.5584 9.86908 87.9545 10.2088 88.2462 10.6463C88.5378 11.0838 88.6986 11.5975 88.7284 12.1875H86.7298C86.6735 11.8063 86.5244 11.4998 86.2824 11.2678C86.0438 11.0324 85.7306 10.9148 85.3428 10.9148C85.0146 10.9148 84.728 11.0043 84.4827 11.1832C84.2407 11.3589 84.0518 11.6158 83.9159 11.9538C83.78 12.2919 83.7121 12.7012 83.7121 13.1818C83.7121 13.669 83.7784 14.0833 83.911 14.4247C84.0468 14.7661 84.2374 15.0263 84.4827 15.2053C84.728 15.3842 85.0146 15.4737 85.3428 15.4737C85.5847 15.4737 85.8018 15.424 85.9941 15.3246C86.1896 15.2251 86.3503 15.081 86.4763 14.892C86.6056 14.6998 86.6901 14.4695 86.7298 14.201H88.7284C88.6953 14.7843 88.5362 15.2981 88.2512 15.7422C87.9694 16.183 87.58 16.5277 87.0828 16.7763C86.5857 17.0249 85.9974 17.1491 85.3179 17.1491ZM91.762 17.1442C91.2748 17.1442 90.8406 17.0597 90.4594 16.8906C90.0783 16.7183 89.7767 16.4647 89.5546 16.13C89.3358 15.7919 89.2265 15.371 89.2265 14.8672C89.2265 14.4429 89.3044 14.0866 89.4601 13.7983C89.6159 13.5099 89.828 13.2779 90.0965 13.1023C90.365 12.9266 90.6699 12.794 91.0113 12.7045C91.356 12.6151 91.7172 12.5521 92.0951 12.5156C92.5392 12.4692 92.8972 12.4261 93.1689 12.3864C93.4407 12.3433 93.6379 12.2803 93.7606 12.1974C93.8832 12.1146 93.9445 11.992 93.9445 11.8295V11.7997C93.9445 11.4848 93.8451 11.2412 93.6462 11.0689C93.4507 10.8965 93.1723 10.8104 92.811 10.8104C92.4298 10.8104 92.1266 10.8949 91.9012 11.0639C91.6758 11.2296 91.5267 11.4384 91.4537 11.6903L89.4949 11.5312C89.5944 11.0672 89.7899 10.6662 90.0816 10.3281C90.3733 9.98674 90.7494 9.7249 91.2101 9.54261C91.6742 9.35701 92.2111 9.2642 92.8209 9.2642C93.2452 9.2642 93.6512 9.31392 94.039 9.41335C94.4301 9.51278 94.7764 9.6669 95.078 9.87571C95.383 10.0845 95.6233 10.353 95.7989 10.6811C95.9746 11.0059 96.0624 11.3954 96.0624 11.8494V17H94.0539V15.9411H93.9942C93.8716 16.1797 93.7075 16.3902 93.502 16.5724C93.2965 16.7514 93.0496 16.8923 92.7613 16.995C92.4729 17.0945 92.1398 17.1442 91.762 17.1442ZM92.3685 15.6825C92.6801 15.6825 92.9552 15.6212 93.1938 15.4986C93.4324 15.3726 93.6197 15.2036 93.7556 14.9915C93.8915 14.7794 93.9594 14.5391 93.9594 14.2706V13.4602C93.8931 13.5033 93.802 13.5431 93.686 13.5795C93.5733 13.6127 93.4457 13.6442 93.3032 13.674C93.1607 13.7005 93.0181 13.7254 92.8756 13.7486C92.7331 13.7685 92.6038 13.7867 92.4878 13.8033C92.2393 13.8397 92.0222 13.8977 91.8366 13.9773C91.651 14.0568 91.5068 14.1645 91.404 14.3004C91.3013 14.433 91.2499 14.5987 91.2499 14.7976C91.2499 15.0859 91.3543 15.3063 91.5631 15.4588C91.7752 15.608 92.0437 15.6825 92.3685 15.6825ZM103.559 11.5412L101.62 11.6605C101.587 11.4948 101.516 11.3456 101.407 11.2131C101.297 11.0772 101.153 10.9695 100.974 10.8899C100.798 10.8071 100.588 10.7656 100.343 10.7656C100.014 10.7656 99.7377 10.8352 99.5123 10.9744C99.287 11.1103 99.1743 11.2926 99.1743 11.5213C99.1743 11.7036 99.2472 11.8577 99.393 11.9837C99.5389 12.1096 99.7891 12.2107 100.144 12.2869L101.526 12.5653C102.268 12.7178 102.822 12.9631 103.186 13.3011C103.551 13.6392 103.733 14.0833 103.733 14.6335C103.733 15.134 103.586 15.5732 103.291 15.951C102.999 16.3288 102.598 16.6238 102.088 16.8359C101.581 17.0447 100.996 17.1491 100.333 17.1491C99.3218 17.1491 98.5164 16.9387 97.9165 16.5178C97.3199 16.0935 96.9702 15.5168 96.8675 14.7876L98.9506 14.6783C99.0135 14.9865 99.166 15.2218 99.4079 15.3842C99.6499 15.5433 99.9598 15.6229 100.338 15.6229C100.709 15.6229 101.007 15.5516 101.233 15.4091C101.461 15.2633 101.577 15.076 101.581 14.8473C101.577 14.6551 101.496 14.4976 101.337 14.375C101.178 14.2491 100.933 14.1529 100.601 14.0866L99.2787 13.8232C98.5329 13.674 97.9778 13.4155 97.6132 13.0476C97.2519 12.6797 97.0713 12.2107 97.0713 11.6406C97.0713 11.1501 97.2039 10.7275 97.469 10.3729C97.7375 10.0182 98.1137 9.74479 98.5976 9.55256C99.0848 9.36032 99.6549 9.2642 100.308 9.2642C101.272 9.2642 102.031 9.46804 102.585 9.87571C103.142 10.2834 103.466 10.8385 103.559 11.5412ZM108.047 17.1491C107.261 17.1491 106.585 16.9901 106.019 16.6719C105.455 16.3504 105.021 15.8963 104.716 15.3097C104.411 14.7197 104.259 14.022 104.259 13.2166C104.259 12.4311 104.411 11.7417 104.716 11.1484C105.021 10.5552 105.45 10.0928 106.004 9.76136C106.56 9.42992 107.213 9.2642 107.962 9.2642C108.466 9.2642 108.935 9.34541 109.369 9.50781C109.807 9.6669 110.188 9.9072 110.513 10.2287C110.841 10.5502 111.096 10.9545 111.278 11.4418C111.461 11.9257 111.552 12.4924 111.552 13.142V13.7237H105.104V12.4112H109.558C109.558 12.1063 109.492 11.8362 109.359 11.6009C109.227 11.3655 109.043 11.1816 108.808 11.049C108.576 10.9131 108.305 10.8452 107.997 10.8452C107.676 10.8452 107.391 10.9197 107.142 11.0689C106.897 11.2147 106.705 11.4119 106.565 11.6605C106.426 11.9058 106.355 12.1792 106.352 12.4808V13.7287C106.352 14.1065 106.421 14.433 106.56 14.7081C106.703 14.9832 106.903 15.1953 107.162 15.3445C107.421 15.4936 107.727 15.5682 108.082 15.5682C108.317 15.5682 108.533 15.535 108.728 15.4688C108.924 15.4025 109.091 15.303 109.23 15.1705C109.369 15.0379 109.475 14.8755 109.548 14.6832L111.507 14.8125C111.408 15.2831 111.204 15.6941 110.896 16.0455C110.591 16.3935 110.196 16.6652 109.712 16.8608C109.232 17.053 108.677 17.1491 108.047 17.1491ZM116.969 17H114.662L118.177 6.81818H120.951L124.461 17H122.154L119.604 9.14489H119.524L116.969 17ZM116.825 12.9979H122.274V14.6783H116.825V12.9979ZM125.147 19.8636V9.36364H127.235V10.6463H127.329C127.422 10.4408 127.556 10.232 127.732 10.0199C127.911 9.80445 128.143 9.62547 128.428 9.48295C128.717 9.33712 129.074 9.2642 129.502 9.2642C130.059 9.2642 130.573 9.41004 131.043 9.7017C131.514 9.99006 131.89 10.4259 132.172 11.0092C132.454 11.5893 132.594 12.3168 132.594 13.1918C132.594 14.0436 132.457 14.7628 132.182 15.3494C131.91 15.9328 131.539 16.3752 131.068 16.6768C130.601 16.9751 130.077 17.1243 129.497 17.1243C129.086 17.1243 128.736 17.0563 128.448 16.9205C128.163 16.7846 127.929 16.6139 127.747 16.4084C127.565 16.1996 127.426 15.9891 127.329 15.777H127.265V19.8636H125.147ZM127.22 13.1818C127.22 13.6359 127.283 14.032 127.409 14.37C127.535 14.7081 127.717 14.9716 127.956 15.1605C128.195 15.3461 128.485 15.4389 128.826 15.4389C129.171 15.4389 129.462 15.3445 129.701 15.1555C129.94 14.9633 130.12 14.6982 130.243 14.3601C130.369 14.0187 130.432 13.6259 130.432 13.1818C130.432 12.741 130.37 12.3532 130.248 12.0185C130.125 11.6837 129.945 11.4219 129.706 11.233C129.467 11.044 129.174 10.9496 128.826 10.9496C128.481 10.9496 128.19 11.0407 127.951 11.223C127.716 11.4053 127.535 11.6638 127.409 11.9986C127.283 12.3333 127.22 12.7277 127.22 13.1818ZM133.506 19.8636V9.36364H135.594V10.6463H135.689C135.782 10.4408 135.916 10.232 136.092 10.0199C136.271 9.80445 136.503 9.62547 136.788 9.48295C137.076 9.33712 137.434 9.2642 137.861 9.2642C138.418 9.2642 138.932 9.41004 139.403 9.7017C139.873 9.99006 140.249 10.4259 140.531 11.0092C140.813 11.5893 140.954 12.3168 140.954 13.1918C140.954 14.0436 140.816 14.7628 140.541 15.3494C140.269 15.9328 139.898 16.3752 139.427 16.6768C138.96 16.9751 138.436 17.1243 137.856 17.1243C137.445 17.1243 137.096 17.0563 136.807 16.9205C136.522 16.7846 136.289 16.6139 136.106 16.4084C135.924 16.1996 135.785 15.9891 135.689 15.777H135.624V19.8636H133.506ZM135.579 13.1818C135.579 13.6359 135.642 14.032 135.768 14.37C135.894 14.7081 136.077 14.9716 136.315 15.1605C136.554 15.3461 136.844 15.4389 137.185 15.4389C137.53 15.4389 137.822 15.3445 138.06 15.1555C138.299 14.9633 138.48 14.6982 138.602 14.3601C138.728 14.0187 138.791 13.6259 138.791 13.1818C138.791 12.741 138.73 12.3532 138.607 12.0185C138.485 11.6837 138.304 11.4219 138.065 11.233C137.827 11.044 137.533 10.9496 137.185 10.9496C136.841 10.9496 136.549 11.0407 136.31 11.223C136.075 11.4053 135.894 11.6638 135.768 11.9986C135.642 12.3333 135.579 12.7277 135.579 13.1818ZM148.219 11.5412L146.28 11.6605C146.247 11.4948 146.176 11.3456 146.067 11.2131C145.957 11.0772 145.813 10.9695 145.634 10.8899C145.458 10.8071 145.248 10.7656 145.003 10.7656C144.675 10.7656 144.398 10.8352 144.172 10.9744C143.947 11.1103 143.834 11.2926 143.834 11.5213C143.834 11.7036 143.907 11.8577 144.053 11.9837C144.199 12.1096 144.449 12.2107 144.804 12.2869L146.186 12.5653C146.928 12.7178 147.482 12.9631 147.847 13.3011C148.211 13.6392 148.393 14.0833 148.393 14.6335C148.393 15.134 148.246 15.5732 147.951 15.951C147.659 16.3288 147.258 16.6238 146.748 16.8359C146.241 17.0447 145.656 17.1491 144.993 17.1491C143.982 17.1491 143.177 16.9387 142.577 16.5178C141.98 16.0935 141.63 15.5168 141.528 14.7876L143.611 14.6783C143.674 14.9865 143.826 15.2218 144.068 15.3842C144.31 15.5433 144.62 15.6229 144.998 15.6229C145.369 15.6229 145.667 15.5516 145.893 15.4091C146.121 15.2633 146.237 15.076 146.241 14.8473C146.237 14.6551 146.156 14.4976 145.997 14.375C145.838 14.2491 145.593 14.1529 145.261 14.0866L143.939 13.8232C143.193 13.674 142.638 13.4155 142.273 13.0476C141.912 12.6797 141.731 12.2107 141.731 11.6406C141.731 11.1501 141.864 10.7275 142.129 10.3729C142.398 10.0182 142.774 9.74479 143.258 9.55256C143.745 9.36032 144.315 9.2642 144.968 9.2642C145.932 9.2642 146.691 9.46804 147.245 9.87571C147.802 10.2834 148.127 10.8385 148.219 11.5412Z" fill="#6863FF"/>
</g>
<defs>
<clipPath id="clip0_158_1175">
<rect width="163" height="40" fill="white"/>
</clipPath>
</defs>
</svg>
